<?xml version="1.0" encoding="UTF-8"?>
<svg width="192px" height="60px" viewBox="0 0 192 60" version="1.1" xmlns="http://www.w3.org/2000/svg" xmlns:xlink="http://www.w3.org/1999/xlink">
    <!-- Generator: Sketch 63.1 (92452) - https://sketch.com -->
    <title>car</title>
    <desc>Created with Sketch.</desc>
    <g id="Page-1" stroke="none" stroke-width="1" fill="none" fill-rule="evenodd">
        <g id="02-Signup" transform="translate(-92.000000, -140.000000)" fill-rule="nonzero">
            <g id="car" transform="translate(92.000000, 140.000000)">
                <g id="Group" transform="translate(19.500000, 28.500000)" fill="#AAB2BD">
                    <path d="M29.9955,14.997375 C29.9955,17.065125 29.575125,19.04475 28.8255,20.846625 C26.546625,26.215125 21.207375,29.994 14.99925,29.994 C9.30075,29.994 4.35225,26.81325 1.802625,22.135125 C0.663,20.005875 0.002625,17.578125 0.002625,14.99775 C0.002625,6.72 6.7215,0.001125 14.99925,0.001125 C23.276625,0.00075 29.9955,6.719625 29.9955,14.997375 Z" id="Shape"></path>
                    <path d="M131.9715,0.00075 C140.248875,0.00075 146.968125,6.719625 146.968125,14.997375 C146.968125,17.065125 146.54925,19.04475 145.799625,20.846625 C143.52075,26.215125 138.178125,29.994 131.9715,29.994 C125.252625,29.994 119.555625,25.55325 117.6345,19.467 C117.215625,18.0555 116.97525,16.5555 116.97525,14.99775 C116.97525,6.719625 123.6945,0.00075 131.9715,0.00075 Z" id="Shape"></path>
                </g>
                <path d="M187.462875,31.500375 L187.462875,34.499625 L178.465125,31.500375 L178.465125,26.4315 L178.465125,26.40225 C185.304375,29.3415 187.462875,31.500375 187.462875,31.500375 Z" id="Shape" fill="#E6E9ED"></path>
                <path d="M139.4745,16.50375 C159.30075,19.563 171.38625,23.371875 178.4655,26.40225 L178.4655,26.4315 L178.4655,31.500375 L187.46325,34.499625 L187.46325,40.498125 L190.49175,43.497375 L187.46325,46.496625 L187.46325,49.495875 L169.46775,49.495875 L165.3,49.346625 C166.049625,47.54475 166.4685,45.565125 166.4685,43.497375 C166.4685,35.219625 159.74925,28.50075 151.471875,28.50075 C143.194875,28.50075 136.475625,35.219625 136.475625,43.497375 C136.475625,45.055125 136.716,46.555125 137.134875,47.966625 L133.476375,49.495875 L52.49475,49.495875 L48.3255,49.346625 C49.0755,47.54475 49.4955,45.565125 49.4955,43.497375 C49.4955,35.219625 42.776625,28.50075 34.49925,28.50075 C26.221875,28.50075 19.502625,35.219625 19.502625,43.497375 C19.502625,46.07775 20.163,48.5055 21.302625,50.63475 L16.503375,49.495875 C16.503375,49.495875 6.005625,49.495875 4.506,40.498125 C3.276,33.119625 1.50675,25.5015 1.50675,25.5015 L16.503375,25.5015 L7.50525,19.503 L7.50525,16.50375 L34.498875,13.504125 C34.498875,13.504125 38.428125,11.2545 45.7755,8.70525 L45.7755,8.736 L49.495125,10.504875 C49.495125,10.504875 55.493625,16.50375 133.47525,16.50375 L139.4745,16.50375 L139.4745,16.50375 Z" id="Shape" fill="#ED5565"></path>
                <g id="Group" opacity="0.3" transform="translate(1.500000, 8.625000)" fill="#FFFFFF">
                    <path d="M18.002625,40.870875 C18.002625,40.870875 7.50525,40.870875 6.00525,31.873125 C4.77525,24.494625 3.006,16.8765 3.006,16.8765 L9.004875,10.878 L9.004875,7.87875 L35.9985,4.879125 C35.9985,4.879125 39.331875,2.98725 45.5355,0.7095 L44.27625,0.110625 L44.27625,0.079875 C36.928875,2.6295 32.999625,4.87875 32.999625,4.87875 L6.006,7.878375 L6.006,10.877625 L0.007125,16.8765 C0.007125,16.8765 1.776375,24.494625 3.006375,31.873125 C4.506,40.870875 15.00375,40.870875 15.00375,40.870875 L19.803,42.00975 C19.665375,41.7525 19.557,41.47725 19.434,41.210625 L18.002625,40.870875 Z" id="Shape"></path>
                </g>
                <g id="Group" opacity="0.2" transform="translate(131.250000, 16.500000)" fill="#000000">
                    <path d="M56.212875,23.998125 L56.212875,17.999625 L56.212875,15.000375 C56.212875,15.000375 54.054,12.8415 47.215125,9.90225 C40.135875,6.87225 8.224125,0.00375 8.224125,0.00375 L0.070125,0.00375 C0.070125,0.00375 36.621,7.503375 43.70025,10.533375 C50.5395,13.472625 53.213625,15.875625 53.213625,15.875625 L53.213625,17.999625 L53.213625,23.998125 L56.242125,26.997375 L53.213625,29.996625 L53.213625,32.995875 L56.212875,32.995875 L56.212875,29.996625 L59.241375,26.997375 L56.212875,23.998125 Z" id="Shape"></path>
                </g>
                <path d="M91.48575,1.507125 C111.730875,1.507125 132.307125,12.274125 139.4745,16.50375 L133.476,16.50375 C55.494375,16.50375 49.495875,10.504875 49.495875,10.504875 L45.77625,8.736 L45.77625,8.70525 C55.434375,5.376375 71.06025,1.507125 91.48575,1.507125 Z" id="Shape" fill="#5D9CEC"></path>
                <g id="Group" opacity="0.3" transform="translate(94.500000, 1.875000)" fill="#FFFFFF">
                    <path d="M6.247125,14.19825 L9.80025,0.944625 C7.825875,0.567 5.84025,0.2565 3.831,0.03525 L0.090375,13.9935 C2.05875,14.06625 4.102875,14.13525 6.247125,14.19825 Z" id="Shape"></path>
                </g>
                <g id="Group" opacity="0.3" transform="translate(102.000000, 3.000000)" fill="#FFFFFF">
                    <path d="M1.8315,13.1565 L5.241,0.42975 C4.751625,0.318375 4.263,0.213 3.773625,0.109125 L0.288,13.11825 C0.786,13.13175 1.321875,13.143375 1.8315,13.1565 Z" id="Shape"></path>
                </g>
                <polygon id="Shape" fill="#E6E9ED" points="7.505625 19.503 16.503375 25.5015 1.507125 25.5015"></polygon>
                <polygon id="Shape" fill="#FFFFFF" points="9.30525 20.702625 7.505625 19.503 1.507125 25.5015 4.506375 25.5015"></polygon>
                <g id="Group" opacity="0.5" transform="translate(19.500000, 28.500000)" fill="#FFFFFF">
                    <path d="M3.00225,14.997375 C3.00225,7.23225 8.93475,0.916125 16.498875,0.151875 C15.997875,0.102 15.513375,0.001125 14.99925,0.001125 C6.721875,0.001125 0.002625,6.72 0.002625,14.99775 C0.002625,23.304 6.7215,29.994 14.99925,29.994 C15.513375,29.994 15.997875,29.89425 16.498875,29.84175 C8.93475,29.08275 3.00225,22.788375 3.00225,14.997375 Z" id="Shape"></path>
                </g>
                <g id="Group" opacity="0.2" transform="translate(32.625000, 28.500000)" fill="#000000">
                    <path d="M13.87125,14.997375 C13.87125,22.76175 7.93875,29.07975 0.374625,29.841375 C0.87525,29.89425 1.360125,29.993625 1.87425,29.993625 C10.151625,29.993625 16.8705,23.274375 16.8705,14.997375 C16.8705,6.690375 10.151625,0.00075 1.87425,0.00075 C1.360125,0.00075 0.87525,0.102 0.374625,0.1515 C7.93875,0.911625 13.87125,7.206 13.87125,14.997375 Z" id="Shape"></path>
                </g>
                <g id="Group" opacity="0.5" transform="translate(136.125000, 28.500000)" fill="#FFFFFF">
                    <path d="M3.3495,14.997375 C3.3495,7.23225 9.2805,0.916125 16.8465,0.151875 C16.3455,0.102 15.859125,0.001125 15.3465,0.001125 C7.0695,0.001125 0.35025,6.72 0.35025,14.99775 C0.35025,23.304 7.0695,29.994 15.3465,29.994 C15.859125,29.994 16.3455,29.89425 16.8465,29.84175 C9.2805,29.08275 3.3495,22.788375 3.3495,14.997375 Z" id="Shape"></path>
                </g>
                <g id="Group" opacity="0.2" transform="translate(149.625000, 28.500000)" fill="#000000">
                    <path d="M13.8435,14.997375 C13.8435,22.76175 7.9125,29.07975 0.346875,29.841375 C0.847875,29.89425 1.33425,29.993625 1.8465,29.993625 C10.123875,29.993625 16.843125,23.274375 16.843125,14.997375 C16.843125,6.690375 10.123875,0.00075 1.8465,0.00075 C1.33425,0.00075 0.847875,0.102 0.346875,0.1515 C7.9125,0.911625 13.8435,7.206 13.8435,14.997375 Z" id="Shape"></path>
                </g>
                <g id="Group" fill="#3A3847">
                    <path d="M16.49625,50.995125 C12.426375,50.995125 4.371375,48.85125 3.019875,40.744125 C1.811625,33.497625 0.057375,25.915875 0.03975,25.84125 C-0.07725,25.33575 0.0735,24.807 0.4395,24.441 L5.9985,18.881625 L5.9985,16.503375 C5.9985,15.73875 6.572625,15.097125 7.33275,15.012375 L34.026,12.046875 C36.739875,10.566375 57.2955,0.007125 91.47825,0.007125 C117.222375,0.007125 137.27175,13.168875 140.039625,15.073875 C178.778625,21.078375 188.13375,30.0585 188.514375,30.4395 C188.795625,30.72075 188.953875,31.10175 188.953875,31.5 L188.953875,39.87075 L191.551875,42.4305 C191.836125,42.71175 192,43.095375 192,43.497 C192,43.898625 191.83575,44.28225 191.551875,44.56275 L188.50875,47.562 C187.917375,48.14775 186.968625,48.142125 186.3885,47.550375 C185.808375,46.959375 185.814375,46.01025 186.403125,45.430125 L188.3625,43.497375 L186.403125,41.563875 C186.118875,41.283375 185.955,40.89975 185.955,40.498125 L185.955,32.19825 C183.741,30.487875 172.55775,23.111625 139.2375,17.98575 C139.009125,17.9505 138.786375,17.85975 138.59625,17.725125 C138.388125,17.577 117.651,3.00675 91.479,3.00675 C56.360625,3.00675 35.44275,14.689125 35.235,14.806125 C35.057625,14.907375 34.8615,14.9715 34.657875,14.995125 L8.9985,17.846625 L8.9985,19.503 C8.9985,19.90125 8.84025,20.281875 8.559375,20.563125 L3.145875,25.97625 C3.63375,28.14675 4.98675,34.3065 5.97825,40.252125 C7.254,47.908125 16.120125,47.995875 16.49625,47.995875 C17.325,47.995875 17.995875,48.66675 17.995875,49.495875 C17.995875,50.325 17.325,50.995125 16.49625,50.995125 Z" id="Shape"></path>
                    <path d="M16.49475,27.001125 C16.209375,27.001125 15.920625,26.919 15.6645,26.749125 L6.66675,20.750625 C5.97675,20.2905 5.791125,19.360875 6.250875,18.670875 C6.7095,17.98125 7.636125,17.79375 8.330625,18.255 L17.328375,24.253875 C18.018,24.713625 18.204,25.643625 17.74425,26.33325 C17.4555,26.76675 16.97925,27.001125 16.49475,27.001125 Z" id="Shape"></path>
                    <path d="M16.49625,27.001125 L1.499625,27.001125 C0.670875,27.001125 0,26.33025 0,25.5015 C0,24.67275 0.670875,24.001875 1.499625,24.001875 L16.49625,24.001875 C17.325,24.001875 17.995875,24.67275 17.995875,25.5015 C17.995875,26.33025 17.325,27.001125 16.49625,27.001125 Z" id="Shape"></path>
                    <path d="M76.4835,13.40775 C75.9195,13.40775 75.380625,13.08975 75.126,12.546375 L72.126375,6.178875 C71.7735,5.43075 72.0945,4.5375 72.844125,4.18425 C73.589625,3.825375 74.485875,4.152375 74.83875,4.902 L77.838,11.2695 C78.190875,12.018 77.87025,12.91125 77.12025,13.264125 C76.914,13.362375 76.69725,13.40775 76.4835,13.40775 Z" id="Shape"></path>
                    <path d="M85.47975,27.001125 L79.48125,27.001125 C78.6525,27.001125 77.981625,26.33025 77.981625,25.5015 C77.981625,24.67275 78.6525,24.001875 79.48125,24.001875 L85.47975,24.001875 C86.3085,24.001875 86.979375,24.67275 86.979375,25.5015 C86.979375,26.33025 86.308875,27.001125 85.47975,27.001125 Z" id="Shape"></path>
                    <path d="M34.581375,44.996625 C33.75375,44.996625 33.067125,44.3265 33.067125,43.497375 C33.067125,42.66825 33.723375,41.997375 34.552125,41.997375 L34.581375,41.997375 C35.410125,41.997375 36.081,42.66825 36.081,43.497375 C36.081,44.3265 35.410125,44.996625 34.581375,44.996625 Z" id="Shape"></path>
                    <path d="M34.492125,59.992875 C25.396125,59.992875 17.995875,52.5945 17.995875,43.497375 C17.995875,34.40025 25.396125,27.001125 34.492125,27.001125 C43.588125,27.001125 50.988,34.399875 50.988,43.497375 C50.988,52.594875 43.58775,59.992875 34.492125,59.992875 Z M34.492125,30.000375 C27.0495,30.000375 20.9955,36.054375 20.9955,43.497375 C20.9955,50.939625 27.049875,56.993625 34.492125,56.993625 C41.934375,56.993625 47.98875,50.93925 47.98875,43.497375 C47.98875,36.05475 41.934375,30.000375 34.492125,30.000375 Z" id="Shape"></path>
                    <path d="M34.492125,38.998125 C33.663375,38.998125 32.9925,38.32725 32.9925,37.498875 L32.9925,34.499625 C32.9925,33.6705 33.663375,32.999625 34.492125,32.999625 C35.320875,32.999625 35.99175,33.6705 35.99175,34.499625 L35.99175,37.498875 C35.99175,38.32725 35.320875,38.998125 34.492125,38.998125 Z" id="Shape"></path>
                    <path d="M34.492125,53.994375 C33.663375,53.994375 32.9925,53.32425 32.9925,52.495125 L32.9925,49.495875 C32.9925,48.66675 33.663375,47.995875 34.492125,47.995875 C35.320875,47.995875 35.99175,48.66675 35.99175,49.495875 L35.99175,52.495125 C35.99175,53.32425 35.320875,53.994375 34.492125,53.994375 Z" id="Shape"></path>
                    <path d="M28.49325,44.996625 L25.494,44.996625 C24.664875,44.996625 23.994375,44.3265 23.994375,43.497375 C23.994375,42.66825 24.664875,41.997375 25.494,41.997375 L28.49325,41.997375 C29.322,41.997375 29.992875,42.66825 29.992875,43.497375 C29.992875,44.3265 29.322,44.996625 28.49325,44.996625 Z" id="Shape"></path>
                    <path d="M43.489875,44.996625 L40.490625,44.996625 C39.661875,44.996625 38.991,44.3265 38.991,43.497375 C38.991,42.66825 39.661875,41.997375 40.490625,41.997375 L43.489875,41.997375 C44.318625,41.997375 44.9895,42.66825 44.9895,43.497375 C44.9895,44.3265 44.318625,44.996625 43.489875,44.996625 Z" id="Shape"></path>
                    <path d="M30.250875,40.756125 C29.86725,40.756125 29.48325,40.6095 29.190375,40.316625 L27.070125,38.196375 C26.484375,37.610625 26.484375,36.661125 27.070125,36.075375 C27.655875,35.489625 28.605,35.489625 29.190375,36.075375 L31.311,38.196375 C31.89675,38.78175 31.89675,39.730875 31.311,40.316625 C31.018125,40.6095 30.6345,40.756125 30.250875,40.756125 Z" id="Shape"></path>
                    <path d="M40.853625,51.3585 C40.47,51.3585 40.086,51.211875 39.793125,50.919 L37.6725,48.79875 C37.08675,48.213 37.08675,47.26425 37.6725,46.6785 C38.25825,46.09275 39.207375,46.09275 39.793125,46.6785 L41.91375,48.79875 C42.4995,49.3845 42.4995,50.334 41.91375,50.919 C41.620875,51.211875 41.23725,51.3585 40.853625,51.3585 Z" id="Shape"></path>
                    <path d="M28.13025,51.3585 C27.746625,51.3585 27.363,51.211875 27.070125,50.919 C26.484375,50.333625 26.484375,49.3845 27.070125,48.79875 L29.190375,46.6785 C29.776125,46.09275 30.72525,46.09275 31.311,46.6785 C31.89675,47.26425 31.89675,48.213 31.311,48.79875 L29.190375,50.919 C28.8975,51.211875 28.513875,51.3585 28.13025,51.3585 Z" id="Shape"></path>
                    <path d="M38.733,40.756125 C38.349375,40.756125 37.96575,40.6095 37.672875,40.316625 C37.087125,39.730875 37.087125,38.781375 37.672875,38.196375 L39.7935,36.075375 C40.37925,35.489625 41.328375,35.489625 41.914125,36.075375 C42.499875,36.661125 42.499875,37.610625 41.914125,38.196375 L39.7935,40.316625 C39.500625,40.6095 39.117,40.756125 38.733,40.756125 Z" id="Shape"></path>
                    <path d="M151.553625,44.996625 C150.724875,44.996625 150.039375,44.3265 150.039375,43.497375 C150.039375,42.66825 150.695625,41.997375 151.524375,41.997375 L151.553625,41.997375 C152.38275,41.997375 153.05325,42.66825 153.05325,43.497375 C153.05325,44.3265 152.38275,44.996625 151.553625,44.996625 Z" id="Shape"></path>
                    <path d="M151.4625,59.992875 C142.368,59.992875 134.966625,52.5945 134.966625,43.497375 C134.966625,34.40025 142.368,27.001125 151.4625,27.001125 C160.56,27.001125 167.95875,34.399875 167.95875,43.497375 C167.95875,52.594875 160.56,59.992875 151.4625,59.992875 Z M151.4625,30.000375 C144.022875,30.000375 137.965875,36.054375 137.965875,43.497375 C137.965875,50.939625 144.022875,56.993625 151.4625,56.993625 C158.908125,56.993625 164.9595,50.93925 164.9595,43.497375 C164.959875,36.05475 158.9085,30.000375 151.4625,30.000375 Z" id="Shape"></path>
                    <path d="M151.4625,38.998125 C150.63675,38.998125 149.962875,38.32725 149.962875,37.498875 L149.962875,34.499625 C149.962875,33.6705 150.63675,32.999625 151.4625,32.999625 C152.294625,32.999625 152.9625,33.6705 152.9625,34.499625 L152.9625,37.498875 C152.9625,38.32725 152.294625,38.998125 151.4625,38.998125 Z" id="Shape"></path>
                    <path d="M151.4625,53.994375 C150.63675,53.994375 149.962875,53.32425 149.962875,52.495125 L149.962875,49.495875 C149.962875,48.66675 150.63675,47.995875 151.4625,47.995875 C152.294625,47.995875 152.9625,48.66675 152.9625,49.495875 L152.9625,52.495125 C152.9625,53.32425 152.294625,53.994375 151.4625,53.994375 Z" id="Shape"></path>
                    <path d="M145.464,44.996625 L142.46475,44.996625 C141.639,44.996625 140.965125,44.3265 140.965125,43.497375 C140.965125,42.66825 141.639,41.997375 142.46475,41.997375 L145.464,41.997375 C146.296125,41.997375 146.963625,42.66825 146.963625,43.497375 C146.963625,44.3265 146.296125,44.996625 145.464,44.996625 Z" id="Shape"></path>
                    <path d="M160.460625,44.996625 L157.461375,44.996625 C156.635625,44.996625 155.962125,44.3265 155.962125,43.497375 C155.962125,42.66825 156.635625,41.997375 157.461375,41.997375 L160.460625,41.997375 C161.29275,41.997375 161.960625,42.66825 161.960625,43.497375 C161.960625,44.3265 161.292375,44.996625 160.460625,44.996625 Z" id="Shape"></path>
                    <path d="M147.221625,40.756125 C146.840625,40.756125 146.454375,40.6095 146.1615,40.316625 L144.040875,38.196375 C143.455125,37.610625 143.455125,36.661125 144.040875,36.075375 C144.626625,35.489625 145.57575,35.489625 146.1615,36.075375 L148.28175,38.196375 C148.8675,38.78175 148.8675,39.730875 148.28175,40.316625 C147.988875,40.6095 147.60825,40.756125 147.221625,40.756125 Z" id="Shape"></path>
                    <path d="M157.824375,51.3585 C157.443375,51.3585 157.057125,51.211875 156.76425,50.919 L154.643625,48.79875 C154.057875,48.213 154.057875,47.26425 154.643625,46.6785 C155.229375,46.09275 156.1785,46.09275 156.76425,46.6785 L158.884875,48.79875 C159.470625,49.3845 159.470625,50.334 158.884875,50.919 C158.592,51.211875 158.211,51.3585 157.824375,51.3585 Z" id="Shape"></path>
                    <path d="M145.101,51.3585 C144.720375,51.3585 144.33375,51.211875 144.040875,50.919 C143.455125,50.333625 143.455125,49.3845 144.040875,48.79875 L146.1615,46.6785 C146.74725,46.09275 147.696375,46.09275 148.28175,46.6785 C148.8675,47.26425 148.8675,48.213 148.28175,48.79875 L146.1615,50.919 C145.86825,51.211875 145.487625,51.3585 145.101,51.3585 Z" id="Shape"></path>
                    <path d="M155.704125,40.756125 C155.323125,40.756125 154.9365,40.6095 154.643625,40.316625 C154.057875,39.730875 154.057875,38.781375 154.643625,38.196375 L156.76425,36.075375 C157.35,35.489625 158.299125,35.489625 158.884875,36.075375 C159.470625,36.661125 159.470625,37.610625 158.884875,38.196375 L156.76425,40.316625 C156.471375,40.6095 156.09075,40.756125 155.704125,40.756125 Z" id="Shape"></path>
                    <path d="M133.467,18.003375 C57.07125,18.003375 49.087125,12.22425 48.427875,11.565375 C47.842125,10.979625 47.842125,10.0305 48.427875,9.44475 C48.981375,8.89125 49.8615,8.859 50.44875,9.354 C50.992125,9.711375 60.3135,15.004125 133.466625,15.004125 C134.29875,15.004125 134.96625,15.674625 134.96625,16.50375 C134.96625,17.3325 134.299125,18.003375 133.467,18.003375 Z" id="Shape"></path>
                    <path d="M133.467,50.995125 L52.487625,50.995125 C51.658875,50.995125 50.988,50.325 50.988,49.495875 C50.988,48.66675 51.658875,47.995875 52.487625,47.995875 L133.467,47.995875 C134.299125,47.995875 134.966625,48.66675 134.966625,49.495875 C134.966625,50.325 134.299125,50.995125 133.467,50.995125 Z" id="Shape"></path>
                    <path d="M190.500375,50.995125 L169.45875,50.995125 C168.632625,50.995125 167.959125,50.325 167.959125,49.495875 C167.959125,48.66675 168.632625,47.995875 169.45875,47.995875 L190.500375,47.995875 C191.3265,47.995875 192,48.66675 192,49.495875 C192,50.325 191.3265,50.995125 190.500375,50.995125 Z" id="Shape"></path>
                    <path d="M187.45425,35.998875 C187.299,35.998875 187.13775,35.975625 186.979875,35.92275 L177.98175,32.922 C177.196875,32.661375 176.775,31.812375 177.036,31.025625 C177.296625,30.24075 178.14,29.817375 178.93125,30.078 L187.929,33.07575 C188.713875,33.339375 189.141375,34.189125 188.87775,34.974 C188.666625,35.600625 188.08425,35.998875 187.45425,35.998875 Z" id="Shape"></path>
                    <path d="M178.4565,32.999625 C177.63075,32.999625 176.956875,32.32875 176.956875,31.500375 L176.956875,26.412375 C176.956875,25.583625 177.63075,24.91275 178.4565,24.91275 C179.28825,24.91275 179.956125,25.583625 179.956125,26.412375 L179.956125,31.500375 C179.956125,32.32875 179.28825,32.999625 178.4565,32.999625 Z" id="Shape"></path>
                </g>
            </g>
        </g>
    </g>
</svg>