<?xml version="1.0" encoding="UTF-8"?>
<svg width="195px" height="80px" viewBox="0 0 195 80" version="1.1" xmlns="http://www.w3.org/2000/svg" xmlns:xlink="http://www.w3.org/1999/xlink">
    <!-- Generator: Sketch 63.1 (92452) - https://sketch.com -->
    <title>crossover</title>
    <desc>Created with Sketch.</desc>
    <g id="Page-1" stroke="none" stroke-width="1" fill="none" fill-rule="evenodd">
        <g id="01-Login" transform="translate(-90.000000, -170.000000)" fill-rule="nonzero">
            <g id="crossover" transform="translate(90.000000, 170.000000)">
                <g id="Group" transform="translate(22.476190, 47.619048)" fill="#AAB2BD">
                    <path d="M152.577905,15.4571429 C152.577905,23.8986667 145.752,30.6918095 137.343238,30.6918095 C128.934857,30.6918095 122.108952,23.8986667 122.108952,15.4571429 C122.108952,7.04838095 128.934857,0.222857143 137.343238,0.222857143 C145.752,0.222857143 152.577905,7.048 152.577905,15.4571429 Z" id="Shape"></path>
                    <path d="M15.4674286,30.6918095 C7.05866667,30.6918095 0.233142857,23.8986667 0.233142857,15.4571429 C0.233142857,7.04838095 7.05866667,0.222857143 15.4674286,0.222857143 C23.8761905,0.222857143 30.7017143,7.04838095 30.7017143,15.4571429 C30.7017143,23.8986667 23.8761905,30.6918095 15.4674286,30.6918095 Z" id="Shape"></path>
                </g>
                <g id="Group" opacity="0.5" transform="translate(22.476190, 47.619048)" fill="#FFFFFF">
                    <path d="M3.28,15.4571429 C3.28,7.56914286 9.30666667,1.15390476 16.9908571,0.37752381 C16.4822857,0.326857143 15.9897143,0.222857143 15.4674286,0.222857143 C7.05866667,0.222857143 0.233142857,7.04838095 0.233142857,15.4571429 C0.233142857,23.8986667 7.05866667,30.6918095 15.4674286,30.6918095 C15.9897143,30.6918095 16.4822857,30.5904762 16.9908571,30.5401905 C9.30666667,29.7660952 3.28,23.3748571 3.28,15.4571429 Z" id="Shape"></path>
                </g>
                <g id="Group" opacity="0.2" transform="translate(36.190476, 47.619048)" fill="#000000">
                    <path d="M13.9405714,15.4571429 C13.9405714,23.3451429 7.91390476,29.7634286 0.229714286,30.5401905 C0.738666667,30.5908571 1.23085714,30.6918095 1.75314286,30.6918095 C10.1619048,30.6918095 16.9874286,23.8689524 16.9874286,15.4571429 C16.9874286,7.01904762 10.1619048,0.222857143 1.75314286,0.222857143 C1.23085714,0.222857143 0.738666667,0.326857143 0.229714286,0.37752381 C7.91390476,1.14780952 13.9405714,7.54209524 13.9405714,15.4571429 Z" id="Shape"></path>
                </g>
                <g id="Group" opacity="0.5" transform="translate(144.380952, 47.619048)" fill="#FFFFFF">
                    <path d="M3.25104762,15.4571429 C3.25104762,7.56914286 9.2792381,1.15390476 16.9622857,0.37752381 C16.4533333,0.326857143 15.9622857,0.222857143 15.4384762,0.222857143 C7.03009524,0.222857143 0.204190476,7.04838095 0.204190476,15.4571429 C0.204190476,23.8986667 7.03009524,30.6918095 15.4384762,30.6918095 C15.9622857,30.6918095 16.4533333,30.5904762 16.9622857,30.5401905 C9.2792381,29.7660952 3.25104762,23.3748571 3.25104762,15.4571429 Z" id="Shape"></path>
                </g>
                <g id="Group" opacity="0.2" transform="translate(158.095238, 47.619048)" fill="#000000">
                    <path d="M13.912,15.4571429 C13.912,23.3451429 7.88685714,29.7634286 0.201142857,30.5401905 C0.709714286,30.5908571 1.20380952,30.6918095 1.72419048,30.6918095 C10.1329524,30.6918095 16.9588571,23.8689524 16.9588571,15.4571429 C16.9588571,7.01904762 10.1329524,0.222857143 1.72419048,0.222857143 C1.20380952,0.222857143 0.709714286,0.326857143 0.201142857,0.37752381 C7.88685714,1.14780952 13.912,7.54209524 13.912,15.4571429 Z" id="Shape"></path>
                </g>
                <polygon id="Shape" fill="#ED5565" points="13.568381 23.4666667 13.568381 32.6072381 4.42780952 32.6072381 5.9512381 23.4666667 7.47466667 23.4666667"></polygon>
                <g id="Group" opacity="0.3" transform="translate(4.190476, 23.238095)" fill="#FFFFFF">
                    <polygon id="Shape" points="3.28419048 0.228571429 1.7607619 0.228571429 0.237333333 9.36914286 3.28419048 9.36914286 4.80761905 0.228571429"></polygon>
                </g>
                <path d="M184.194667,32.6072381 L188.247238,38.7009524 C172.069714,38.7009524 168.960381,35.6540952 168.960381,35.6540952 L184.194667,32.6072381 Z" id="Shape" fill="#E6E9ED"></path>
                <g id="Group" opacity="0.2" transform="translate(181.333333, 32.380952)" fill="#000000">
                    <path d="M3.84038095,6.27847619 C4.81066667,6.30514286 5.82819048,6.32 6.91390476,6.32 L2.86133333,0.226285714 L0.171428571,0.764571429 L3.84038095,6.27847619 Z" id="Shape"></path>
                </g>
                <g id="Group" transform="translate(34.666667, 1.523810)" fill="#5D9CEC">
                    <path d="M42.8571429,0.432761905 C46.9081905,0.310857143 51.0220952,0.370285714 55.0742857,0.61447619 C77.1047619,1.98628571 103.613333,19.872 106.597714,21.9428571 C103.247238,21.9428571 70.0651429,21.9428571 45.9337143,21.9428571 L45.9337143,18.896 L42.8868571,3.66133333 L42.8571429,0.432761905 Z" id="Shape"></path>
                    <path d="M45.9337143,18.896 L45.9337143,21.9428571 C34.112,21.9428571 24.4834286,21.9428571 21.5584762,21.9428571 C12.3565714,21.9428571 0.352,15.8487619 0.291047619,9.75504762 L0.291047619,8.93409524 L0.291047619,5.97638095 L0.291047619,5.94666667 C7.14666667,4.39352381 24.4533333,0.858666667 42.8567619,0.433142857 L42.8864762,3.66171429 L45.9337143,18.896 Z" id="Shape"></path>
                </g>
                <path d="M7.47466667,20.4198095 L22.7093333,14.3257143 L19.6624762,8.232 L31.8499048,8.232 C31.8499048,8.232 32.9775238,7.92838095 34.9577143,7.47009524 L34.9577143,7.49980952 L34.9577143,10.4575238 L34.9577143,11.2784762 C35.0186667,17.3721905 47.0232381,23.4662857 56.2251429,23.4662857 C59.1500952,23.4662857 68.7786667,23.4662857 80.600381,23.4662857 C104.73181,23.4662857 137.913905,23.4662857 141.264381,23.4662857 C141.448762,23.5881905 141.538286,23.6506667 141.538286,23.6506667 C160.977143,23.6506667 184.195048,32.6072381 184.195048,32.6072381 L168.960762,35.6540952 C168.960762,35.6540952 172.070095,38.7009524 188.247619,38.7009524 L190.288762,41.7478095 L191.81219,44.7946667 L191.81219,50.888381 L191.81219,53.9352381 L191.81219,56.9820952 L193.335619,63.0758095 L178.101333,63.0758095 L175.054476,63.0758095 C175.054476,54.6670476 168.228571,47.8415238 159.81981,47.8415238 C151.411429,47.8415238 144.585524,54.6670476 144.585524,63.0758095 L141.538667,63.0758095 L56.2251429,63.0758095 L53.1779048,63.0758095 C53.1779048,54.6670476 46.352381,47.8415238 37.943619,47.8415238 C29.5348571,47.8415238 22.7093333,54.6670476 22.7093333,63.0758095 L19.6624762,63.0758095 L1.38095238,60.0289524 L1.38095238,50.888381 L4.42780952,47.8415238 L4.42780952,44.7946667 L4.42780952,35.6540952 L4.42780952,32.6072381 L13.5687619,32.6072381 L13.5687619,23.4662857 L7.47466667,23.4662857 L7.47466667,20.4198095 Z" id="Shape" fill="#A0D468"></path>
                <g id="Group" opacity="0.5" transform="translate(1.142857, 8.000000)" fill="#FFFFFF">
                    <polygon id="Shape" points="9.37866667 15.4666667 9.52152381 13.6038095 25.9939048 7.41485714 21.6853333 0.232 18.519619 0.232 21.5664762 6.32571429 6.33180952 12.4198095 6.33180952 15.4666667"></polygon>
                    <path d="M21.5664762,54.8384762 L3.28495238,51.7912381 L3.28495238,43.4064762 L6.33219048,39.6038095 L6.33219048,36.5569524 L6.33219048,27.416381 L6.33219048,24.607619 L3.28495238,24.607619 L3.28495238,27.6544762 L3.28495238,36.7950476 L3.28495238,39.8419048 L0.238095238,42.8887619 L0.238095238,52.0293333 L18.519619,55.0761905 L21.5664762,55.0761905 C21.5664762,54.9958095 21.5889524,54.9184762 21.5900952,54.8384762 L21.5664762,54.8384762 L21.5664762,54.8384762 Z" id="Shape"></path>
                </g>
                <g id="Group" opacity="0.3" transform="translate(91.809524, 3.047619)" fill="#FFFFFF">
                    <path d="M0.259809524,20.4190476 C2.34971429,20.4190476 4.45942857,20.4190476 6.56914286,20.4190476 L11.5885714,1.69409524 C9.61904762,1.1112381 7.64761905,0.605333333 5.6792381,0.191619048 L0.259809524,20.4190476 Z" id="Shape"></path>
                </g>
                <g id="Group" opacity="0.3" transform="translate(99.809524, 4.952381)" fill="#FFFFFF">
                    <path d="M0.146285714,18.5142857 C0.672761905,18.5142857 1.19961905,18.5142857 1.72609524,18.5142857 L6.49828571,0.694095238 C6.01638095,0.533333333 5.52838095,0.396571429 5.04380952,0.24152381 L0.146285714,18.5142857 Z" id="Shape"></path>
                </g>
                <g id="Group" opacity="0.3" transform="translate(53.714286, 2.285714)" fill="#FFFFFF">
                    <path d="M5.70666667,0.998095238 L0.329904762,21.0647619 C1.06780952,21.1333333 1.79961905,21.1809524 2.51085714,21.1809524 C3.34704762,21.1809524 4.78247619,21.1809524 6.608,21.1809524 L12.1958095,0.331809524 C9.97485714,0.524952381 7.8087619,0.751238095 5.70666667,0.998095238 Z" id="Shape"></path>
                </g>
                <g id="Group" opacity="0.3" transform="translate(61.714286, 2.285714)" fill="#FFFFFF">
                    <path d="M0.185142857,21.1809524 C0.676190476,21.1809524 1.22628571,21.1809524 1.76380952,21.1809524 L7.41714286,0.0788571429 C6.88152381,0.114666667 6.34171429,0.15047619 5.81028571,0.192 L0.185142857,21.1809524 Z" id="Shape"></path>
                </g>
                <g id="Group" opacity="0.2" transform="translate(137.904762, 23.238095)" fill="#000000">
                    <path d="M46.2899048,9.36914286 C46.2899048,9.36914286 23.072381,0.412571429 3.63314286,0.412571429 C3.63314286,0.412571429 3.544,0.350095238 3.3592381,0.228190476 C2.89219048,0.228190476 1.82971429,0.228190476 0.312380952,0.228190476 C0.496761905,0.350095238 0.904761905,1.44533333 0.904761905,1.44533333 C21.9142857,3.53980952 34.864,7.98247619 40.6990476,10.487619 L46.2899048,9.36914286 Z" id="Shape"></path>
                    <path d="M53.9070476,33.744381 L53.9070476,30.6975238 L53.9070476,27.6506667 L53.9070476,21.5569524 L52.383619,18.5100952 L50.3424762,15.4632381 C47.295619,15.4632381 50.3424762,15.4632381 47.295619,15.4632381 L49.3367619,18.5100952 L50.8601905,21.5569524 L50.8601905,27.6506667 L50.8601905,30.6975238 L50.8601905,33.744381 L52.383619,39.8380952 L55.4304762,39.8380952 L53.9070476,33.744381 Z" id="Shape"></path>
                </g>
                <g id="Group" fill="#3A3847">
                    <path d="M4.57066667,46.1961905 C3.7287619,46.1961905 3.0472381,45.5146667 3.0472381,44.6727619 L3.0472381,35.5321905 C3.0472381,34.6899048 3.7287619,34.0087619 4.57066667,34.0087619 C5.41295238,34.0087619 6.09409524,34.6899048 6.09409524,35.5321905 L6.09409524,44.6727619 C6.09409524,45.5146667 5.41295238,46.1961905 4.57066667,46.1961905 Z" id="Shape"></path>
                    <path d="M191.957714,46.1961905 C191.398095,46.1961905 190.85981,45.8895238 190.592,45.3539048 L189.068571,42.3070476 L183.344,33.7409524 C180.047238,32.5180952 159.144381,25.031619 141.681143,25.031619 C141.368762,25.031619 141.062095,24.936381 140.803429,24.7546667 C140.52381,24.5554286 112.441143,4.9527619 89.7885714,3.53638095 C62.424381,1.82247619 32.6758095,9.50514286 32.3779048,9.58552381 C32.2529524,9.61828571 32.1222857,9.63314286 31.9927619,9.63314286 L22.2704762,9.63314286 L24.2148571,13.5222857 C24.4053333,13.9032381 24.4278095,14.3462857 24.2758095,14.7451429 C24.1238095,15.144 23.8129524,15.4594286 23.4171429,15.6198095 L8.18285714,21.7139048 C7.40761905,22.0262857 6.51504762,21.6453333 6.20266667,20.8628571 C5.89028571,20.0834286 6.2712381,19.1965714 7.05219048,18.8841905 L20.7481905,13.4064762 L18.4422857,8.79161905 C18.2057143,8.32152381 18.2308571,7.7592381 18.5093333,7.30971429 C18.7874286,6.86019048 19.2769524,6.58666667 19.8049524,6.58666667 L31.8007619,6.58666667 C34.4472381,5.92 63.3097143,-1.17638095 89.9790476,0.496 C112.271619,1.89142857 138.488381,19.456 142.163048,21.9881905 C161.548571,22.128 183.935619,30.6975238 184.888,31.0662857 C185.179429,31.1794286 185.432381,31.3786667 185.604952,31.640381 L191.698667,40.7813333 L193.317333,43.992 C193.695238,44.7447619 193.388952,45.6609524 192.63619,46.0358095 C192.419048,46.1455238 192.187048,46.1961905 191.957714,46.1961905 Z" id="Shape"></path>
                    <path d="M193.475429,64.4567619 C192.794286,64.4567619 192.17219,63.9958095 191.999619,63.3055238 L190.479238,57.2327619 C190.273905,56.4148571 190.768,55.5874286 191.585905,55.3847619 C192.401524,55.1794286 193.231238,55.6735238 193.433905,56.4918095 L194.954286,62.5645714 C195.159619,63.3798095 194.665524,64.2068571 193.847619,64.4121905 C193.722286,64.4419048 193.600381,64.4567619 193.475429,64.4567619 Z" id="Shape"></path>
                    <path d="M19.8064762,64.4773333 C19.7234286,64.4773333 19.64,64.4712381 19.5550476,64.456381 L1.27352381,61.4095238 C0.538666667,61.287619 0,60.6540952 0,59.9070476 L0,50.7664762 C0,49.9245714 0.68152381,49.2430476 1.52342857,49.2430476 C2.36571429,49.2430476 3.04685714,49.9245714 3.04685714,50.7664762 L3.04685714,58.6186667 L20.0548571,61.4514286 C20.8849524,61.5912381 21.4457143,62.3740952 21.3078095,63.2041905 C21.184381,63.9512381 20.5386667,64.4773333 19.8064762,64.4773333 Z" id="Shape"></path>
                    <path d="M13.7112381,24.8678095 L6.09409524,24.8678095 C5.25219048,24.8678095 4.57066667,24.1862857 4.57066667,23.344381 C4.57066667,22.5024762 5.25219048,21.8209524 6.09409524,21.8209524 L13.711619,21.8209524 C14.5535238,21.8209524 15.2350476,22.5024762 15.2350476,23.344381 C15.2350476,24.1862857 14.5535238,24.8678095 13.7112381,24.8678095 Z" id="Shape"></path>
                    <path d="M13.7112381,34.0087619 C12.8693333,34.0087619 12.1878095,33.3272381 12.1878095,32.4853333 L12.1878095,23.344381 C12.1878095,22.5024762 12.8693333,21.8209524 13.7112381,21.8209524 C14.5531429,21.8209524 15.2346667,22.5024762 15.2346667,23.344381 L15.2346667,32.4853333 C15.2346667,33.3272381 14.5535238,34.0087619 13.7112381,34.0087619 Z" id="Shape"></path>
                    <path d="M13.7112381,34.0087619 L4.57066667,34.0087619 C3.7287619,34.0087619 3.0472381,33.3272381 3.0472381,32.4853333 C3.0472381,31.6430476 3.7287619,30.9619048 4.57066667,30.9619048 L13.711619,30.9619048 C14.5535238,30.9619048 15.2350476,31.6430476 15.2350476,32.4853333 C15.2346667,33.3272381 14.5535238,34.0087619 13.7112381,34.0087619 Z" id="Shape"></path>
                    <path d="M1.52380952,52.2899048 C1.13409524,52.2899048 0.744380952,52.1409524 0.446857143,51.8434286 C-0.148190476,51.248381 -0.148190476,50.2845714 0.446857143,49.6895238 L3.49371429,46.6426667 C3.77942857,46.3569524 4.16609524,46.1961905 4.57066667,46.1961905 L13.711619,46.1961905 C14.5535238,46.1961905 15.2350476,46.8777143 15.2350476,47.719619 C15.2350476,48.5615238 14.5535238,49.2430476 13.711619,49.2430476 L5.20152381,49.2430476 L2.6007619,51.8434286 C2.3032381,52.1413333 1.91352381,52.2899048 1.52380952,52.2899048 Z" id="Shape"></path>
                    <path d="M4.57219048,34.0087619 C4.4887619,34.0087619 4.40571429,34.0026667 4.3207619,33.9878095 C3.49066667,33.8510476 2.92952381,33.0651429 3.06780952,32.2350476 L4.5912381,23.0944762 C4.72952381,22.264 5.51847619,21.696 6.344,21.8415238 C7.17409524,21.9813333 7.73485714,22.7638095 7.59657143,23.5939048 L6.07314286,32.7348571 C5.94971429,33.4819048 5.304,34.0087619 4.57219048,34.0087619 Z" id="Shape"></path>
                    <path d="M141.681143,64.4773333 L56.367619,64.4773333 C55.5257143,64.4773333 54.8441905,63.7961905 54.8441905,62.9539048 C54.8441905,62.112 55.5257143,61.4304762 56.367619,61.4304762 L141.680762,61.4304762 C142.523048,61.4304762 143.204191,62.112 143.204191,62.9539048 C143.204191,63.7961905 142.523429,64.4773333 141.681143,64.4773333 Z" id="Shape"></path>
                    <path d="M178.24381,64.4773333 C177.404952,64.4773333 176.723429,63.7961905 176.720381,62.9569524 C176.720381,62.1150476 177.401905,61.4335238 178.24381,61.4304762 L193.475048,61.4095238 L193.478095,61.4095238 C194.317333,61.4095238 194.998476,62.0910476 195.001524,62.9329524 C195.001524,63.7721905 194.320381,64.456381 193.478095,64.456381 L178.246857,64.4773333 L178.24381,64.4773333 L178.24381,64.4773333 Z" id="Shape"></path>
                    <path d="M188.39619,40.1024762 C172.390857,40.1024762 168.627048,37.2015238 168.035048,36.6182857 C167.437333,36.0293333 167.42819,35.0651429 168.017143,34.464 C168.606476,33.8628571 169.567238,33.8571429 170.171429,34.4460952 L170.171429,34.4460952 C170.18019,34.4460952 173.590476,37.055619 188.39619,37.055619 C189.238476,37.055619 189.92,37.7367619 189.92,38.5790476 C189.92,39.4209524 189.238476,40.1024762 188.39619,40.1024762 Z" id="Shape"></path>
                    <path d="M169.103238,37.055619 C168.392,37.055619 167.755429,36.5558095 167.609524,35.8327619 C167.445714,35.0057143 167.981714,34.2053333 168.805714,34.0388571 L184.04,30.992 C184.870476,30.8194286 185.667429,31.3607619 185.831238,32.1881905 C185.998095,33.0121905 185.462095,33.815619 184.638095,33.9794286 L169.403429,37.0262857 C169.302476,37.0468571 169.201143,37.055619 169.103238,37.055619 Z" id="Shape"></path>
                    <path d="M191.954667,55.3367619 L184.337524,55.3367619 C183.495619,55.3367619 182.814095,54.6552381 182.814095,53.8133333 C182.814095,52.9714286 183.495619,52.2899048 184.337524,52.2899048 L191.954667,52.2899048 C192.796952,52.2899048 193.478095,52.9714286 193.478095,53.8133333 C193.478095,54.6552381 192.796952,55.3367619 191.954667,55.3367619 Z" id="Shape"></path>
                    <path d="M191.954667,52.2899048 C191.112762,52.2899048 190.431238,51.608381 190.431238,50.7664762 L190.431238,44.6727619 C190.431238,43.8308571 191.112762,43.1493333 191.954667,43.1493333 C192.796952,43.1493333 193.478095,43.8308571 193.478095,44.6727619 L193.478095,50.7664762 C193.478095,51.608381 192.796952,52.2899048 191.954667,52.2899048 Z" id="Shape"></path>
                    <path d="M191.954667,58.383619 C191.112762,58.383619 190.431238,57.7024762 190.431238,56.8601905 L190.431238,53.8133333 C190.431238,52.9714286 191.112762,52.2899048 191.954667,52.2899048 C192.796952,52.2899048 193.478095,52.9714286 193.478095,53.8133333 L193.478095,56.8601905 C193.478095,57.7024762 192.796952,58.383619 191.954667,58.383619 Z" id="Shape"></path>
                    <path d="M160.054476,64.4773333 C159.212571,64.4773333 158.516571,63.7961905 158.516571,62.9539048 C158.516571,62.112 159.182857,61.4304762 160.024762,61.4304762 L160.054476,61.4304762 C160.896762,61.4304762 161.578286,62.112 161.578286,62.9539048 C161.578286,63.7961905 160.896762,64.4773333 160.054476,64.4773333 Z" id="Shape"></path>
                    <path d="M159.962286,79.712381 C150.723429,79.712381 143.204571,72.1965714 143.204571,62.9542857 C143.204571,53.7154286 150.723429,46.1965714 159.962286,46.1965714 C169.20419,46.1965714 176.720381,53.7154286 176.720381,62.9542857 C176.720381,72.1961905 169.20419,79.712381 159.962286,79.712381 Z M159.962286,49.2430476 C152.401524,49.2430476 146.251429,55.3935238 146.251429,62.9539048 C146.251429,70.5142857 152.401905,76.6647619 159.962286,76.6647619 C167.523429,76.6647619 173.673524,70.5142857 173.673524,62.9539048 C173.673524,55.3935238 167.523429,49.2430476 159.962286,49.2430476 Z" id="Shape"></path>
                    <path d="M159.962286,58.383619 C159.120381,58.383619 158.439238,57.7024762 158.439238,56.8601905 L158.439238,53.8133333 C158.439238,52.9714286 159.120381,52.2899048 159.962286,52.2899048 C160.804571,52.2899048 161.486095,52.9714286 161.486095,53.8133333 L161.486095,56.8601905 C161.486095,57.7024762 160.804571,58.383619 159.962286,58.383619 Z" id="Shape"></path>
                    <path d="M159.962286,73.6182857 C159.120381,73.6182857 158.439238,72.9371429 158.439238,72.0952381 L158.439238,69.048381 C158.439238,68.2060952 159.120381,67.5245714 159.962286,67.5245714 C160.804571,67.5245714 161.486095,68.2060952 161.486095,69.048381 L161.486095,72.0952381 C161.486095,72.9371429 160.804571,73.6182857 159.962286,73.6182857 Z" id="Shape"></path>
                    <path d="M153.868571,64.4773333 L150.821714,64.4773333 C149.97981,64.4773333 149.298286,63.7961905 149.298286,62.9539048 C149.298286,62.112 149.97981,61.4304762 150.821714,61.4304762 L153.868571,61.4304762 C154.710857,61.4304762 155.392381,62.112 155.392381,62.9539048 C155.392381,63.7961905 154.710857,64.4773333 153.868571,64.4773333 Z" id="Shape"></path>
                    <path d="M169.103238,64.4773333 L166.056,64.4773333 C165.214095,64.4773333 164.532952,63.7961905 164.532952,62.9539048 C164.532952,62.112 165.214095,61.4304762 166.056,61.4304762 L169.103238,61.4304762 C169.945143,61.4304762 170.626667,62.112 170.626667,62.9539048 C170.626667,63.7961905 169.945143,64.4773333 169.103238,64.4773333 Z" id="Shape"></path>
                    <path d="M155.653714,60.1691429 C155.264381,60.1691429 154.874286,60.0201905 154.576762,59.7230476 L152.422476,57.5687619 C151.827429,56.9737143 151.827429,56.0095238 152.422476,55.4144762 C153.017524,54.8194286 153.981714,54.8194286 154.576762,55.4144762 L156.730667,57.5687619 C157.325714,58.1638095 157.325714,59.128 156.730667,59.7230476 C156.433524,60.0201905 156.04381,60.1691429 155.653714,60.1691429 Z" id="Shape"></path>
                    <path d="M166.425143,70.9401905 C166.03581,70.9401905 165.645714,70.7912381 165.34819,70.4937143 L163.193905,68.3398095 C162.598857,67.7447619 162.598857,66.7805714 163.193905,66.1855238 C163.788952,65.5904762 164.753524,65.5904762 165.34819,66.1855238 L167.502476,68.3398095 C168.097524,68.9348571 168.097524,69.8990476 167.502476,70.4937143 C167.204952,70.791619 166.814857,70.9401905 166.425143,70.9401905 Z" id="Shape"></path>
                    <path d="M153.499429,70.9401905 C153.110095,70.9401905 152.72,70.7912381 152.422476,70.4937143 C151.827429,69.8986667 151.827429,68.9348571 152.422476,68.3398095 L154.576762,66.1855238 C155.17181,65.5904762 156.136,65.5904762 156.730667,66.1855238 C157.325714,66.7805714 157.325714,67.7447619 156.730667,68.3398095 L154.576762,70.4937143 C154.279238,70.791619 153.889524,70.9401905 153.499429,70.9401905 Z" id="Shape"></path>
                    <path d="M164.270857,60.1691429 C163.881143,60.1691429 163.491048,60.0201905 163.193524,59.7230476 C162.598476,59.128 162.598476,58.1634286 163.193524,57.5687619 L165.34781,55.4144762 C165.942857,54.8194286 166.907048,54.8194286 167.502095,55.4144762 C168.097143,56.0095238 168.097143,56.9737143 167.502095,57.5687619 L165.34781,59.7230476 C165.050286,60.0201905 164.660952,60.1691429 164.270857,60.1691429 Z" id="Shape"></path>
                    <path d="M38.1771429,64.4773333 C37.336381,64.4773333 36.6388571,63.7961905 36.6388571,62.9539048 C36.6388571,62.112 37.3055238,61.4304762 38.1474286,61.4304762 L38.1771429,61.4304762 C39.0190476,61.4304762 39.7005714,62.112 39.7005714,62.9539048 C39.7005714,63.7961905 39.0190476,64.4773333 38.1771429,64.4773333 Z" id="Shape"></path>
                    <path d="M38.0864762,79.712381 C28.8460952,79.712381 21.328381,72.1965714 21.328381,62.9542857 C21.328381,53.7154286 28.8460952,46.1965714 38.0864762,46.1965714 C47.3268571,46.1965714 54.8441905,53.7154286 54.8441905,62.9542857 C54.8441905,72.1961905 47.3268571,79.712381 38.0864762,79.712381 Z M38.0864762,49.2430476 C30.5257143,49.2430476 24.375619,55.3935238 24.375619,62.9539048 C24.375619,70.5142857 30.5260952,76.6647619 38.0864762,76.6647619 C45.6468571,76.6647619 51.7973333,70.5142857 51.7973333,62.9539048 C51.7973333,55.3935238 45.6472381,49.2430476 38.0864762,49.2430476 Z" id="Shape"></path>
                    <path d="M38.0864762,58.383619 C37.2445714,58.383619 36.5630476,57.7024762 36.5630476,56.8601905 L36.5630476,53.8133333 C36.5630476,52.9714286 37.2445714,52.2899048 38.0864762,52.2899048 C38.928381,52.2899048 39.6099048,52.9714286 39.6099048,53.8133333 L39.6099048,56.8601905 C39.6099048,57.7024762 38.9287619,58.383619 38.0864762,58.383619 Z" id="Shape"></path>
                    <path d="M38.0864762,73.6182857 C37.2445714,73.6182857 36.5630476,72.9371429 36.5630476,72.0952381 L36.5630476,69.048381 C36.5630476,68.2060952 37.2445714,67.5245714 38.0864762,67.5245714 C38.928381,67.5245714 39.6099048,68.2060952 39.6099048,69.048381 L39.6099048,72.0952381 C39.6099048,72.9371429 38.9287619,73.6182857 38.0864762,73.6182857 Z" id="Shape"></path>
                    <path d="M31.9927619,64.4773333 L28.9459048,64.4773333 C28.103619,64.4773333 27.4224762,63.7961905 27.4224762,62.9539048 C27.4224762,62.112 28.103619,61.4304762 28.9459048,61.4304762 L31.9927619,61.4304762 C32.8346667,61.4304762 33.5161905,62.112 33.5161905,62.9539048 C33.5161905,63.7961905 32.8346667,64.4773333 31.9927619,64.4773333 Z" id="Shape"></path>
                    <path d="M47.2270476,64.4773333 L44.1801905,64.4773333 C43.3382857,64.4773333 42.6567619,63.7961905 42.6567619,62.9539048 C42.6567619,62.112 43.3382857,61.4304762 44.1801905,61.4304762 L47.2270476,61.4304762 C48.0689524,61.4304762 48.7504762,62.112 48.7504762,62.9539048 C48.7504762,63.7961905 48.0693333,64.4773333 47.2270476,64.4773333 Z" id="Shape"></path>
                    <path d="M33.7782857,60.1691429 C33.3885714,60.1691429 32.9984762,60.0201905 32.7009524,59.7230476 L30.5466667,57.5687619 C29.951619,56.9737143 29.951619,56.0095238 30.5466667,55.4144762 C31.1417143,54.8194286 32.1059048,54.8194286 32.7009524,55.4144762 L34.8552381,57.5687619 C35.4502857,58.1638095 35.4502857,59.128 34.8552381,59.7230476 C34.5573333,60.0201905 34.167619,60.1691429 33.7782857,60.1691429 Z" id="Shape"></path>
                    <path d="M44.5493333,70.9401905 C44.159619,70.9401905 43.7695238,70.7912381 43.472,70.4937143 L41.3177143,68.3398095 C40.7226667,67.7447619 40.7226667,66.7805714 41.3177143,66.1855238 C41.9127619,65.5904762 42.8769524,65.5904762 43.472,66.1855238 L45.6262857,68.3398095 C46.2213333,68.9348571 46.2213333,69.8990476 45.6262857,70.4937143 C45.3287619,70.791619 44.9390476,70.9401905 44.5493333,70.9401905 Z" id="Shape"></path>
                    <path d="M31.623619,70.9401905 C31.2339048,70.9401905 30.8441905,70.7912381 30.5466667,70.4937143 C29.951619,69.8986667 29.951619,68.9348571 30.5466667,68.3398095 L32.7009524,66.1855238 C33.296,65.5904762 34.2601905,65.5904762 34.8552381,66.1855238 C35.4502857,66.7805714 35.4502857,67.7447619 34.8552381,68.3398095 L32.7009524,70.4937143 C32.4034286,70.791619 32.0137143,70.9401905 31.623619,70.9401905 Z" id="Shape"></path>
                    <path d="M42.3950476,60.1691429 C42.0053333,60.1691429 41.615619,60.0201905 41.3180952,59.7230476 C40.7230476,59.128 40.7230476,58.1634286 41.3180952,57.5687619 L43.472381,55.4144762 C44.0674286,54.8194286 45.031619,54.8194286 45.6266667,55.4144762 C46.2217143,56.0095238 46.2217143,56.9737143 45.6266667,57.5687619 L43.472381,59.7230476 C43.1748571,60.0201905 42.7847619,60.1691429 42.3950476,60.1691429 Z" id="Shape"></path>
                    <path d="M132.540571,24.8678095 L56.367619,24.8678095 C46.3748571,24.8678095 33.6365714,18.4201905 33.56946,11.1714286 C33.5619048,10.3295238 34.2373333,9.64190476 35.0780952,9.63314286 C35.0841905,9.63314286 35.088381,9.63314286 35.0929524,9.63314286 C35.9272381,9.63314286 36.6087619,10.3059048 36.616381,11.1417143 C36.6609524,15.9321905 47.5512381,21.8209524 56.367619,21.8209524 L132.54019,21.8209524 C133.382476,21.8209524 134.063619,22.5024762 134.063619,23.344381 C134.063619,24.1862857 133.382476,24.8678095 132.540571,24.8678095 Z" id="Shape"></path>
                    <path d="M80.7417143,21.8209524 C80.0304762,21.8209524 79.3939048,21.3211429 79.2495238,20.5980952 L76.2026667,5.36380952 C76.0373333,4.5367619 76.5729524,3.73638095 77.3973333,3.56952381 C78.2350476,3.4 79.0262857,3.94171429 79.1900952,4.76571429 L82.2369524,20.000381 C82.4022857,20.824381 81.8662857,21.6278095 81.0422857,21.791619 C80.9409524,21.8121905 80.84,21.8209524 80.7417143,21.8209524 Z" id="Shape"></path>
                    <path d="M89.8838095,34.0087619 L84.1710476,34.0087619 C83.3287619,34.0087619 82.647619,33.3272381 82.647619,32.4853333 C82.647619,31.6430476 83.3287619,30.9619048 84.1710476,30.9619048 L89.8838095,30.9619048 C90.7257143,30.9619048 91.4072381,31.6430476 91.4072381,32.4853333 C91.4072381,33.3272381 90.7257143,34.0087619 89.8838095,34.0087619 Z" id="Shape"></path>
                    <path d="M47.0365714,34.0087619 L41.3238095,34.0087619 C40.4819048,34.0087619 39.800381,33.3272381 39.800381,32.4853333 C39.800381,31.6430476 40.4819048,30.9619048 41.3238095,30.9619048 L47.0365714,30.9619048 C47.8788571,30.9619048 48.56,31.6430476 48.56,32.4853333 C48.56,33.3272381 47.8788571,34.0087619 47.0365714,34.0087619 Z" id="Shape"></path>
                </g>
            </g>
        </g>
    </g>
</svg>