<?xml version="1.0" encoding="UTF-8"?>
<svg width="11px" height="14px" viewBox="0 0 11 14" version="1.1" xmlns="http://www.w3.org/2000/svg" xmlns:xlink="http://www.w3.org/1999/xlink">
    <!-- Generator: Sketch 63.1 (92452) - https://sketch.com -->
    <title>map pointer</title>
    <desc>Created with Sketch.</desc>
    <g id="Page-1" stroke="none" stroke-width="1" fill="none" fill-rule="evenodd">
        <g id="03-Home" transform="translate(-35.000000, -142.000000)" fill="#323643" fill-rule="nonzero">
            <g id="Group-7">
                <g id="Group-2" transform="translate(20.000000, 125.000000)">
                    <path d="M20.0702757,17 C17.2745106,17 15,19.2745106 15,22.0702484 C15,25.5398463 19.5374001,30.633419 19.7305839,30.8485598 C19.9120372,31.0506577 20.2288423,31.0503023 20.4099675,30.8485598 C20.6031514,30.633419 25.1405514,25.5398463 25.1405514,22.0702484 C25.1405514,19.2745106 22.8660135,17 20.0702757,17 Z M20.0702757,24.6212319 C18.6636568,24.6212319 17.5193195,23.4768673 17.5193195,22.0702484 C17.5193195,20.6636295 18.6636842,19.5192921 20.0702757,19.5192921 C21.4768673,19.5192921 22.6212046,20.6636568 22.6212046,22.0702757 C22.6212046,23.4768946 21.4768673,24.6212319 20.0702757,24.6212319 Z" id="map-pointer"></path>
                </g>
            </g>
        </g>
    </g>
</svg>