<?xml version="1.0" encoding="UTF-8"?>
<svg width="14px" height="14px" viewBox="0 0 14 14" version="1.1" xmlns="http://www.w3.org/2000/svg" xmlns:xlink="http://www.w3.org/1999/xlink">
    <!-- Generator: Sketch 63.1 (92452) - https://sketch.com -->
    <title>phone</title>
    <desc>Created with Sketch.</desc>
    <g id="Page-1" stroke="none" stroke-width="1" fill="none" fill-rule="evenodd" opacity="0.5" stroke-linecap="round" stroke-linejoin="round">
        <g id="02-Signup" transform="translate(-51.000000, -468.000000)" stroke="#606470">
            <g id="Group-6" transform="translate(30.000000, 383.000000)">
                <g id="Group-4" transform="translate(0.000000, 68.000000)">
                    <g id="phone" transform="translate(22.000000, 18.000000)">
                        <path d="M12,8.952 L12,10.752 C12.0013715,11.0898871 11.8602288,11.412695 11.6112467,11.6411189 C11.3622647,11.8695428 11.0285184,11.9824129 10.692,11.952 C8.84570032,11.7513845 7.0721995,11.1204867 5.514,10.11 C4.06429687,9.18879831 2.83520169,7.95970313 1.914,6.51 C0.899986834,4.94472239 0.268945801,3.16259674 0.072,1.308 C0.0416839262,0.972523399 0.153763205,0.639751454 0.380859468,0.390972633 C0.607955731,0.142193813 0.929156544,0.000317214143 1.266,-5.89913658e-05 L3.066,-5.89913658e-05 C3.66831843,-0.00592809429 4.18170051,0.435580489 4.266,1.032 C4.34197381,1.60803987 4.48286967,2.17363613 4.686,2.718 C4.850841,3.15652502 4.74540904,3.65088376 4.416,3.984 L3.654,4.746 C4.50813328,6.2481275 5.7518725,7.49186672 7.254,8.346 L8.016,7.584 C8.34911624,7.25459096 8.84347498,7.149159 9.282,7.314 C9.82636387,7.51713033 10.3919601,7.65802619 10.968,7.734 C11.5713376,7.81911619 12.015114,8.34287555 12,8.952 Z" id="Shape"></path>
                    </g>
                </g>
            </g>
        </g>
    </g>
</svg>